<svg data-v-0dd9719b="" version="1.0" xmlns="http://www.w3.org/2000/svg" xmlns:xlink="http://www.w3.org/1999/xlink" width="100%" height="100%" viewBox="0 0 340.000000 250.000000" preserveAspectRatio="xMidYMid meet" color-interpolation-filters="sRGB" style="margin: auto;"> <rect data-v-0dd9719b="" x="0" y="0" width="100%" height="100%" fill="#ffffff" fill-opacity="1" class="background"></rect> <rect data-v-0dd9719b="" x="0" y="0" width="100%" height="100%" fill="url(#watermark)" fill-opacity="1" class="watermarklayer"></rect> <g data-v-0dd9719b="" fill="#333" class="icon-text-wrapper icon-svg-group iconsvg" transform="translate(72.25000000007853,97.49945068359375)"><g class="iconsvg-imagesvg" transform="translate(0,0)"><g><rect fill="#333" fill-opacity="0" stroke-width="2" x="0" y="0" width="55" height="55.00110002200044" class="image-rect"></rect> <svg x="0" y="0" width="55" height="55.00110002200044" filtersec="colorsb7651076454" class="image-svg-svg primary" style="overflow: visible;"><svg xmlns="http://www.w3.org/2000/svg" viewBox="-0.0019585678819566965 0.0002686096995603293 163.05958557128906 163.06222534179688"><title>36</title><path d="M130.42 32.48a91.37 91.37 0 0 1-59.82 34c-22.55 3-33.09-7.69-30-28.18 4.14-27.72 37.76-38.23 77-29.87A81.57 81.57 0 0 0 .84 93.3a82.71 82.71 0 0 0 45.64 12.87 84.74 84.74 0 0 0 83.94-73.69" fill="#e37315"></path><path d="M130.42 32.48a91.37 91.37 0 0 1-59.82 34c-22.55 3-33.09-7.69-30-28.18 4.14-27.72 37.76-38.23 77-29.87a81.17 81.17 0 0 0-65-3.08c-16.6 8-25 21.43-27.85 34.92C17.08 77.08 43 93.57 77.1 83.86c19.23-5.47 40-20.46 53.32-51.38" fill="#efefeb" fill-rule="evenodd" opacity=".05"></path><path d="M136.67 36.75A91.56 91.56 0 0 1 46.48 113a90.92 90.92 0 0 1-43.93-11.18A82 82 0 0 0 27.94 143c17.24 4.35 42.35 5.1 64.39-5.54a84.75 84.75 0 0 0 44.34-100.7" fill="#016737" fill-rule="evenodd"></path><path d="M136.67 36.75A91.56 91.56 0 0 1 46.48 113a90.92 90.92 0 0 1-43.93-11.18A82 82 0 0 0 27.94 143c17.24 4.35 42.35 5.1 64.39-5.54a84.75 84.75 0 0 0 44.34-100.7" fill="#016737"></path><path d="M136.67 36.75A91.56 91.56 0 0 1 46.48 113a90.92 90.92 0 0 1-43.93-11.18 81.83 81.83 0 0 0 8.38 20.48 83.88 83.88 0 0 0 2.66 4.3c43.15 12.15 117.41-5.8 123.08-89.85" fill="#efefeb" fill-rule="evenodd" opacity=".05"></path><path d="M139.1 23.79a91.55 91.55 0 0 1-99.87 127.45A81.54 81.54 0 0 0 139.1 23.79" fill="#039"></path></svg></svg> <!----></g></g> <g transform="translate(62,6.784296035766602)"><g data-gra="path-name" fill-rule="" class="tp-name iconsvg-namesvg" transform="translate(0,0)"><g transform="scale(1)"><g><path d="M6.42-8L13.86-8 13.86-9.83 6.42-9.83 6.42-13.42 8.36-13.42 7.19-16.14 12.65-16.14 13.83-13.42 19.36-13.42 20.54-16.14 26-16.14 24.83-13.42 26.66-13.42 26.66-9.83 19.62-9.83 19.62-8 26.66-8 26.66-4.4 19.62-4.4 19.62 0 13.86 0 13.86-4.4 6.42-4.4 6.42-8ZM19.22-20.28L29.34-20.28Q30.11-20.28 30.77-19.99 31.43-19.69 31.93-19.2 32.42-18.7 32.71-18.03 33.01-17.35 33.01-16.58L33.01-16.58 33.01-3.63Q33.01-2.09 31.94-1.05 30.88 0 29.34 0L29.34 0 24.98 0 26.48-3.26 27.32-3.26Q27.73-3.26 28.04-3.58 28.35-3.89 28.35-4.33L28.35-4.33 28.35-15.88Q28.35-16.32 28.04-16.63 27.73-16.94 27.32-16.94L27.32-16.94 5.5-16.94 5.5 0 0.84 0 0.84-20.28 13.86-20.28 13.86-21.9 0.7-21.9 0.7-25.56 13.86-25.56 13.86-26.44 19.22-26.44 19.22-25.56 32.75-25.56 32.75-21.9 19.22-21.9 19.22-20.28ZM46.03-3.67L48.67-3.67Q48.96-3.67 49.2-3.89 49.44-4.11 49.44-4.44L49.44-4.44 49.44-13.31 35.25-13.31 35.25-16.87 49.44-16.87 53.99-16.87 65.87-16.87 65.87-13.31 53.99-13.31 53.99-2.82Q53.99-1.65 53.2-0.86 52.41-0.07 51.24-0.07L51.24-0.07 44.45-0.07 46.03-3.67ZM39.17-20.65L39.17-18.48 34.62-18.48 34.62-24.24 39.17-24.24 47.35-24.24 46.36-26.37 51.38-26.37 52.41-24.24 63.16-24.24Q64.59-24.24 65.59-23.23 66.6-22.23 66.6-20.79L66.6-20.79 66.6-18.48 62.05-18.48 62.05-19.51Q62.05-19.99 61.72-20.32 61.39-20.65 60.92-20.65L60.92-20.65 39.17-20.65ZM75.07-4.18L73.31-0.22 68.29-0.22 70.05-4.18 70.05-24.24 82.15-24.24 81.27-26.22 87.14-26.22 88.02-24.24 100.38-24.24 100.38-20.68 75.07-20.68 75.07-4.18ZM111.57-6.89L111.57-3.59 134.2-3.59 132.84 0.04 111.46 0.04 108.12 0.04 107.53 0.04 105.7-3.45 105.41 0.04 101.99 0.04 103.02-12.1 106.43-12.1 106.25-10.05 107.17-8.25 107.17-14.05 101.99-14.05 101.99-17.68 106.36-17.68 106.36-21.53 102.32-21.53 102.32-25.16 106.36-25.16 106.36-26.44 110.76-26.44 110.76-25.16 114.79-25.16 114.79-21.53 110.76-21.53 110.76-17.68 115.12-17.68 115.12-14.05 111.57-14.05 111.57-10.53 114.79-10.53 114.79-6.89 111.57-6.89ZM130.09-19.88L129.06-19.88 129.83-17.35 134.2-17.35 131.04-13.17 133.46-5.02 128.73-5.02 127.63-8.69 127.56-8.58 122.68-8.58 126.27-13.35 124.37-19.88 120.59-19.88 120.59-9.79Q120.59-9.32 120.92-8.97 121.25-8.62 121.73-8.62L121.73-8.62 122.35-8.62 123.74-5.02 120.59-5.02 120.22-5.02Q119.38-5.02 118.65-5.34 117.91-5.65 117.36-6.2 116.81-6.75 116.5-7.46 116.19-8.18 116.19-9.02L116.19-9.02 116.19-21.16 116.19-23.51 123.3-23.51 122.42-26.44 127.15-26.44 128-23.51 129.21-23.51 128.51-26.33 132.62-26.33 134.2-19.88 132.44-19.88 130.09-19.88Z" transform="translate(-0.699999988079071, 26.440000534057617)"></path></g> <!----> <!----> <!----> <!----> <!----> <!----> <!----></g></g> <g data-gra="path-slogan" fill-rule="" class="tp-slogan iconsvg-slogansvg" fill="#333" transform="translate(4.055000305175781,33.48000144958496)"><rect width="0"></rect> <rect x="128.38999938964844" width="0"></rect> <g transform="translate(0,0)"><g transform="scale(1)"><path d="M2.30-8.58L6.61-1.64L6.61-8.58L7.73-8.58L7.73 0L6.42 0L2.06-6.94L2.02-6.94L2.02 0L0.89 0L0.89-8.58L2.30-8.58ZM15.19 0L14.34-2.48L10.88-2.48L9.98 0L8.81 0L12.05-8.58L13.36-8.58L16.45 0L15.19 0ZM12.61-7.31L11.25-3.52L13.92-3.52L12.66-7.31L12.61-7.31ZM18.89-8.58L23.20-1.64L23.20-8.58L24.33-8.58L24.33 0L23.02 0L18.66-6.94L18.61-6.94L18.61 0L17.48 0L17.48-8.58L18.89-8.58ZM27.52-8.58L31.83-1.64L31.83-8.58L32.95-8.58L32.95 0L31.64 0L27.28-6.94L27.23-6.94L27.23 0L26.11 0L26.11-8.58L27.52-8.58ZM34.92-8.58L36.09-8.58L36.09 0L34.92 0L34.92-8.58ZM39.47-8.58L43.78-1.64L43.78-8.58L44.91-8.58L44.91 0L43.59 0L39.23-6.94L39.19-6.94L39.19 0L38.06 0L38.06-8.58L39.47-8.58ZM53.11-3.61L50.48-3.61L50.48-4.59L54.23-4.59L54.23 0L53.48 0L53.20-1.08Q52.22 0.09 50.39 0.14L50.39 0.14Q48.66 0.14 47.72-0.75L47.72-0.75Q46.31-2.06 46.36-4.36L46.36-4.36Q46.69-8.63 50.44-8.81L50.44-8.81Q53.63-8.63 54.09-6L54.09-6L52.97-6Q52.50-7.78 50.39-7.83L50.39-7.83Q47.72-7.64 47.58-4.31L47.58-4.31Q47.58-0.75 50.44-0.75L50.44-0.75Q51.47-0.75 52.22-1.31L52.22-1.31Q53.16-2.06 53.11-3.61L53.11-3.61ZM65.77-3.61L63.14-3.61L63.14-4.59L66.89-4.59L66.89 0L66.14 0L65.86-1.08Q64.88 0.09 63.05 0.14L63.05 0.14Q61.31 0.14 60.38-0.75L60.38-0.75Q58.97-2.06 59.02-4.36L59.02-4.36Q59.34-8.63 63.09-8.81L63.09-8.81Q66.28-8.63 66.75-6L66.75-6L65.63-6Q65.16-7.78 63.05-7.83L63.05-7.83Q60.38-7.64 60.23-4.31L60.23-4.31Q60.23-0.75 63.09-0.75L63.09-0.75Q64.13-0.75 64.88-1.31L64.88-1.31Q65.81-2.06 65.77-3.61L65.77-3.61ZM74.34-3.19L74.34-8.58L75.52-8.58L75.52-3.05Q75.38 0.05 72 0.14L72 0.14Q68.86 0.05 68.72-2.86L68.72-2.86L68.72-8.58L69.89-8.58L69.89-3.19Q69.94-0.84 72.05-0.80L72.05-0.80Q74.34-0.84 74.34-3.19L74.34-3.19ZM82.97 0L82.13-2.48L78.66-2.48L77.77 0L76.59 0L79.83-8.58L81.14-8.58L84.23 0L82.97 0ZM80.39-7.31L79.03-3.52L81.70-3.52L80.44-7.31L80.39-7.31ZM86.67-8.58L90.98-1.64L90.98-8.58L92.11-8.58L92.11 0L90.80 0L86.44-6.94L86.39-6.94L86.39 0L85.27 0L85.27-8.58L86.67-8.58ZM100.31-3.61L97.69-3.61L97.69-4.59L101.44-4.59L101.44 0L100.69 0L100.41-1.08Q99.42 0.09 97.59 0.14L97.59 0.14Q95.86 0.14 94.92-0.75L94.92-0.75Q93.52-2.06 93.56-4.36L93.56-4.36Q93.89-8.63 97.64-8.81L97.64-8.81Q100.83-8.63 101.30-6L101.30-6L100.17-6Q99.70-7.78 97.59-7.83L97.59-7.83Q94.92-7.64 94.78-4.31L94.78-4.31Q94.78-0.75 97.64-0.75L97.64-0.75Q98.67-0.75 99.42-1.31L99.42-1.31Q100.36-2.06 100.31-3.61L100.31-3.61ZM110.16-8.58L106.92-3.47L106.92 0L105.75 0L105.75-3.47L102.52-8.58L103.88-8.58L106.31-4.45L108.80-8.58L110.16-8.58ZM116.86-3.19L116.86-8.58L118.03-8.58L118.03-3.05Q117.89 0.05 114.52 0.14L114.52 0.14Q111.38 0.05 111.23-2.86L111.23-2.86L111.23-8.58L112.41-8.58L112.41-3.19Q112.45-0.84 114.56-0.80L114.56-0.80Q116.86-0.84 116.86-3.19L116.86-3.19ZM121.13-1.03L126.28-1.03L126.28 0L119.95 0L119.95-8.58L126.19-8.58L126.19-7.59L121.13-7.59L121.13-4.92L125.81-4.92L125.81-3.89L121.13-3.89L121.13-1.03Z" transform="translate(-0.890625, 8.8125)"></path></g></g></g></g></g><defs v-gra="od"></defs></svg>